<?xml version="1.0" encoding="UTF-8"?>
<svg width="90.625" height="90.625" version="1.1" viewBox="0 0 98 98" xmlns="http://www.w3.org/2000/svg">
 <g transform="translate(-1 -953.36)">
  <path fill="#a3c5f7" d="m50 953.36c-27.05 0-49 21.95-49 49s21.95 49 49 49 49-21.95 49-49c0-27.05-21.95-49-49-49zm0 2c4.2414 0 8.3422 0.5731 12.25 1.625l-2 2.6562-2.4688 1.6563c-1.4079-0.1066-2.3082-1.3133-3.3438-1.8437-2.5101-1.0269-4.7554-0.06-6.875 1-4.1921 2.7184-12.587 3.5916-14.562 7.9062 0 0.8333 0.3735 1.5084 0.8125 2.0938 0.439 0.5853 0.96875 1.0937 1.4688 1.5937 0.52831 0.7543 0.48404 1.2705 0.21875 2-1.2032-0.261-2.3365 0.096-3.5 0.313-1.1667 0-2.1525 0.4117-2.6875 1.125s-0.74856 1.466-1.2188 2.4062c-0.18703 0.3729-0.10778 0.8616 0.1875 1.1563 0.38215 0.3821 0.56811 0.7585 0.875 1.2187 0.438 0.7101 1.0744 0.8922 1.7812 1.0626-2.0134 0.7628-3.6947 2.4261-4.5625 4.093-2.0936 0.2098-3.2509 1.6244-4.4062 3.125-1.7766 1.233-3.3068 3.54-2.9688 6.625-0.75103 2.0014-2 3.9985-2 7.1875 5e-3 0.3197 0.17315 0.6327 0.4375 0.8125 1.308 0.872 1.9498 1.9404 2.7188 3.0937 0.76896 1.1535 1.7466 2.4364 3.5312 3.0313 0.1 0.037 0.20592 0.058 0.3125 0.062 0.94918 0 5.4538-0.028 8.75-0.9688 1.4596 1.5031 3.3266 2.0761 5.0938 2.625-0.34213 1.4159-0.83185 2.9723-0.84375 4.3438-2e-3 0.1504 0.0301 0.3012 0.0937 0.4375 0.97483 1.6643 2.458 2.0263 4.0938 2.3437 0.71127 1.6225 0.7278 3.1069-0.0937 4.75-1.1037 2.2074-1.1042 4.6003-0.0312 6.8126 0.48697 1.7671 1.8974 3.1929 1.9374 4.6565 0 1.3333 0.56807 2.8643 1.375 4.3438 0.80693 1.4792 1.8297 2.8523 3.1875 3.5312 0.1337 0.074 0.28467 0.1175 0.4375 0.125 1.3333 0 2.4375-0.625 3.4375-1.125s1.8958-0.875 2.5625-0.875c0.3416-0.01 0.67298-0.2041 0.84375-0.5 1.4294-2.3823 3.125-4.0597 4.4688-5.2812 0.85533-0.7233 1.6496-1.4371 2.3125-2.2188 0.1772-0.2463 0.375-0.5417 0.375-1-0.27183-0.7646-0.30545-1.9067-0.28125-2.3125 1.1806-0.8255 2.337-1.4265 3.4375-2.1875 0.38944-0.328 0.84375-0.75 0.84375-1.5v-9c0-0.8333 0.15719-1.2761 0.65625-1.875s1.4276-1.3267 2.9062-2.3125c1.7987-1.1991 3.0546-3.3225 3.9688-5.2813 0.45705-0.9792 0.81447-1.9104 1.0625-2.6874 0.24803-0.7772 0.40625-1.2605 0.40625-1.8438-5e-5 -0.5236-0.47642-0.9999-1-1-1.5075 0.089-3.0025 0.6674-4.1875 0.969 0.78727-0.5454 1.5592-1.0636 2.5312-1.5938 1.3974-0.76223 2.8538-1.5201 3.5625-2.9375 1.1096-1.6684 3.1908-2.4432 4-4 0.24034-1.2743-0.50685-2.7094-1.3126-3.5313 0.90137-0.1702 2.1539-0.4765 2.9688-0.781 0.89929 1.5269 2.0238 2.6265 3.625 3.5 0.85777 1.6335 1.8125 2.8339 1.8125 4.375 0 0.6011 0.239 1.0101 0.5 1.4062 1.5602 2.0447 2.9305 3.4306 4.7812 5.2813 0.54818 0.5665 1.7125 0.1008 1.7188-0.6875-0.15533-1.4543-0.67318-2.5849-1-4 0.18041-1.8558-0.49508-5.0253 0.71875-6.3125 0.17637-0.1823 0.27926-0.4338 0.28125-0.6875 0.17667-1.7798-0.21398-3.6227 0.56245-4.906 1.5673 4.6883 2.4375 9.6887 2.4375 14.906 0 25.969-21.031 47-47 47-18.751 0-34.925-10.973-42.469-26.844 0.4688-1.1564 1.093-1.904 1.4062-2.8437 0.15738-1.0299 0.0625-2.1538 0.0625-3.2187 0.73309-1.9491 0.16013-3.2102-1.0937-4.5626-0.34989-0.7593-0.7787-1.5591-1.1875-2.25l-0.71875-0.7187c0.13439-0.9165-0.49842-1.252-1-1.5625h-1.7188c-0.17336-1.6422-0.28125-3.3116-0.28125-5 0-25.969 21.031-47 47-47zm14.312 2.25c13.5 4.3132 24.347 14.54 29.469 27.656-2.0073 1.8818-1.7934 4.818-1.7812 6.9376-1.1713 2.4042-1.334 5.359-0.84375 7.8124-0.83986-0.94063-1.5095-1.7501-2.1562-2.6562-0.0134-2.3776-1.4503-4.25-2.5625-5.9062-1.8807-0.9404-2.5909-1.6817-3.5312-3.5626-0.23762-0.466-0.87735-0.6742-1.3438-0.4374-1.7615 0.8807-3.5625 0.9062-5.5625 0.9062-1.3879 0.01-2.6863 0.9675-3 0-0.1741-0.6497-3-2-4-2-0.3661 0.9018 1 1 1 2 0.8471 1.1527 0.011 1.0963 0 2 0.3659 1.3658 2.1339-0.5001 3 0h2.625c0.53018 0.4695 1.0965 0.8777 1.5312 1.3125 0.45209 0.4521 0.64403 0.9143 0.71875 1.4375-1.1116 1.5115-3.0286 2.3331-3.7812 3.7812-0.2913 0.5827-1.3349 1.3247-2.6875 2.0626-1.3526 0.7377-2.9482 1.5108-4.125 2.6874-0.68771 1.1 0.32885 2.022 1.0312 2.5313 1.5079 0.4678 3.0304-0.1277 4.3438-0.5313-0.22052 0.6827-0.53052 1.5342-0.9375 2.4063-0.8359 1.7912-2.0799 3.668-3.2812 4.4687-1.5213 1.0143-2.5928 1.7863-3.3438 2.6876-0.75094 0.9011-1.0938 1.9895-1.0938 3.1562v8.8125c-1.0986 1.0461-2.7662 1.5431-3.7188 2.4687-0.7357 0.7358-0.78804 1.7854-0.625 2.4376 0.14721 0.5887 0.28228 0.9585 0.3125 1.1562-0.60934 0.697-1.4417 1.3406-2.0312 1.875-1.3302 1.2093-3.0206 2.9477-4.5312 5.3438-1.063 0.1475-2.0039 0.5799-2.8438 1-0.89095 0.4454-1.6458 0.739-2.2812 0.8124-0.6391-0.3978-1.5106-1.3475-2.1562-2.5312-0.69307-1.2706-1.125-2.7083-1.125-3.375 0-2.4444-1.4982-3.9644-2.0625-5.375-0.65756-1.9392-0.72288-3.755-0.0312-5.1877 1.1193-2.2385 1.1193-4.6676 0-6.9063-0.10309-0.1916-0.27051-0.3478-0.46875-0.4374-1.3075-0.3686-2.5709-0.6093-3.375-1.375 0.11404-1.654 0.71758-3.2695 0.9375-4.7188 8e-3 -0.4239-0.28473-0.8363-0.6875-0.9688-2.1498-0.5495-4.2882-1.4559-5.5938-2.75-0.26055-0.2667-0.6775-0.3678-1.0312-0.25-2.5937 0.8646-7.2185 0.9644-8.4375 0.9688-1.1618-0.41-1.6907-1.1142-2.4062-2.1875-0.63894-0.9584-1.477-2.1443-2.7812-3.1875 0.10713-2.4764 1.076-4.1061 1.875-6.3125 0.0577-0.1482 0.0793-0.3103 0.0625-0.4685-0.38846-2.5674 0.80964-4.1872 2.1875-5.0938 0.1084-0.065 0.20439-0.1499 0.28125-0.25 0.9163-1.5275 2.0542-2.3152 3.5-2.5 0.38529 0.015 0.76907-0.2157 0.9375-0.5625 1.6286-3.7529 4.727-3.7587 8.0938-4.4373h4.9687c0.11488 0.9362-0.28705 1.6846-0.6875 2.2812-0.57437 0.5554-0.08 1.7376 0.71875 1.7188 1.6939-0.021 3.5976-0.2726 4.875 0.5 0.44365 0.3628 0.93587 0.8474 1.5312 1.2812 0.46501 0.3554 1.2361 0.1787 1.5-0.3437l0.65625-1.3437c1.5468 0.1517 3.0524 0.6903 4.4375 0.9062 0.0633 0 0.12617-0.015 0.1875-0.031l5-1c0.30424-0.053 0.5786-0.2561 0.71875-0.5313 0.45611-0.7593 0.81628-1.6586 1.0937-2.4375 0-0.4583-0.16001-0.9491-0.4375-1.2812-1.8233-1.2253-4.0476-1.0606-5.7812-1.4376-0.19723-0.3452-0.44993-0.9507-0.75-1.5937-0.36119-0.9081-0.95546-1.2486-1.75-1.5625-0.63761-0.4489-1.6809-0.2363-2.25-0.094-0.34732 0.2171-0.55772 0.6025-0.65625 0.9063-0.19194 0.6031-0.10661 1.227-0.0625 1.8125-4.2056-1.0067-6.5812-2.7124-7.375-5.0938-0.18898-0.5252-0.87216-0.8046-1.375-0.5624-1.8493 0.8901-3.2889 2.4707-4.9375 2.9682-1.0254 0.4102-1.6039 0.9673-2.1562 1.3125s-1.1169 0.625-2.4688 0.625c-0.29644-0.3341-0.56693-0.7577-0.81245-1.0938 0.30864-0.661 0.59035-1.3497 0.75-1.5624 0.215-0.2868 0.22917-0.3438 1.0625-0.3438 1.1268-0.1398 2.3205-0.454 3.2812-0.3122 0.37177 0.3842 1.0657 0.3842 1.4375 0 1.263-1.6587 1.3482-4.0078 0-5.4063-0.71305-0.5875-1.1736-1.318-1.5938-2.0312 1.0525-1.0087 2.4025-1.6027 3.6875-2.1875 0.28227 0.5327 1.1875 0.7295 1.1875 1.4063 0.8471 1.1527-0.989 2.6275-1 3.5312 0.3659 1.3658 4.1339-1.5001 5-1 2.5443-1.267 9-3 10-5l-1-1s-0.4991-0.5903-3 0c-0.5504 0.1299 0.7909-2.3955 0-2-2 1-0.8332 2.1366-2 3-1.369 1.013-3.7992 1.026-4 1-0.68086-0.09-1.316-0.8123-1.6875-1.4062 2.1554-0.9 4.3464-1.8295 6.125-2.7188 1.7112-0.9607 3.4697-1.447 5.125-1 1.3761 1.0273 2.8626 2.103 4.4375 2.125 1.2774-0.4053 2.4156-1.4229 3.5625-2.1875 1.0101-1.051 1.8598-2.3719 2.75-3.5625zm1.6875 14.75-1 1s-0.4994 1.1313 0 2c0.5225 0.4433 0.7941 0.012 2 1 1.0938 0.8957 0.3502 2.8258 1 3 1.3662 0.3661 1.2114 1.3009 2 2h2c0-1-0.8057-1.0508-1-2l-1-1c-0.5001-0.8659 2.8657-2.2589 1.5-2.625-0.9037 0.011-2.3475-0.5275-3.5-1.375-1.3506-0.9924-1.2631-1.8022-2-2zm-10.5 1c-1.5 1 0.0292 1.7532-0.5 2.5 0 1-2 0.4899-1 2 1 0.4899 3.8259 0.1497 4-0.5 0.366-1.3661 4 1 4 1l2-1c-1-2-3.4557-2.233-6-3.5-0.64957 0.3751-1.8078-0.5749-2.5-0.5zm-14.844 3.4062c1.4771 2.7845 4.5832 4.6478 9.1562 5.5626 0.32342 0.063 0.67553-0.046 0.90625-0.2813 0.54463-0.5446 0.59375-1.2099 0.59375-1.7187 0-0.4829-0.0567-0.8885-0.0625-1.1563 0.24731 0.079 0.32951 0.078 0.65625 0.156 0.0655 0.073 0.18519 0.2897 0.3125 0.5624 0.25462 0.5458 0.47613 1.308 0.9375 2 0.52603 0.6548 1.3935 0.7773 2.0625 0.9063 1.2879 0.069 2.4691 0.1785 3.6562 0.4997l-0.5625 1.1563-4.4062 0.875c-1.6531-0.3184-3.3401-1.0009-4.9375-0.9688-0.35818 0-0.70707 0.2148-0.875 0.5312l-0.4375 0.875c-0.18635-0.1649-0.32691-0.3016-0.53125-0.4687-1.4753-1.1439-2.6324-0.9375-4.5-0.9375 0.46899-0.9164 0.3748-2.1524 0.375-3-5e-5 -0.5236-0.47642-0.9999-1-1h-6c-0.70837 0.047-1.4461 0.2597-2.1562 0.4062 0.2284-0.1042 0.49939-0.195 0.6875-0.3124 0.781-0.4882 1.2025-0.9309 1.8438-1.1876 1.6076-0.4939 3.0033-1.6774 4.2812-2.4994zm19.031 12.125c-0.68196 0.2299-0.81088 0.677-1.1875 1.3126 0.1975 0.7369 1.5076 1.8057 2.5 3.1562 0.8471 1.1527 1.4172 2.5963 1.4062 3.5 0.3659 1.3658 1.7276 0.9999 2.5938 1.5l0.375 1.3438c0.9493 0.1943 2.0168 1.1519 2.625 0.65623l-0.28125-2.75c-0.6992-0.7886-1.7278-1.0089-2.0938-2.375-0.1741-0.6497-1.7293-1.7813-2.625-2.875-0.9875-1.2059-1.3378-2.3525-1.7812-2.875-0.54294-0.3121-1.0799-0.6146-1.5312-0.5938zm-56.187 20.469h0.5c2e-3 0.2537 0.10488 0.5052 0.28125 0.6875l0.875 0.875 0.9375 1.875c1.242 1.1478 1.2933 2.2314 0.9063 3.5625v2.8438l-0.40625 1.2187c-1.3908-3.781-2.5725-7.6831-3.0938-11.062zm67.312 13c-0.20016 0.037-0.38831 0.1363-0.53125 0.2812-0.58846 0.5885-0.91673 1.1461-1.2812 1.5938-0.61054 0.6524-1.0871 1.0211-1.7188 1.4062-0.7357 0.7358-0.78804 1.7854-0.625 2.4376 0.11925 0.4769 0.18907 0.7119 0.25 0.9374l-0.625 0.625c-0.25611 0.2672-0.34432 0.6831-0.21875 1.0313 0.0718 0.2154 0.0903 0.9586 0.1875 1.6875 0.0486 0.3644 0.11154 0.7447 0.34375 1.1562 0.23221 0.4118 0.82292 0.8438 1.4062 0.8438 1 0 1.1044-0.6981 2.7188-2.3125 0.0991-0.107 0.17435-0.236 0.21875-0.375 0.22988-0.6897 0.24694-1.2629 0.3125-1.6563 0.0656-0.3933 0.12588-0.6258 0.46875-0.9687 1.0494-1.0494 1.7326-2.0156 2.2188-3.375 0.16847-0.6888-0.0355-1.4718-0.125-2.0313-0.34215-0.9142-0.99647-1.097-1.8125-1.2812h-1.1875zm0.65625 2h0.46875c0.029 0.1157 0.0533 0.4392 0.0625 0.7812-0.37999 1.0116-0.80964 1.591-1.7188 2.5-0.65713 0.6573-0.93014 1.4247-1.0312 2.0313-0.087 0.5217-0.0872 0.8593-0.15625 1.1563l-0.90625 0.9062c-0.0217-0.2878-0.10661-0.6416-0.15625-1l0.6875-0.6875c0.17637-0.1823 0.27926-0.4338 0.28125-0.6875 0-0.8333-0.31929-1.4022-0.40625-1.75-0.087-0.3478-0.1393-0.2982 0.125-0.5625 0.81085-0.5017 1.4009-1.057 1.8125-1.5625 0.35946-0.4415 0.64328-0.7821 0.9375-1.125z" color="#000000" overflow="visible" style="text-indent:0;text-transform:none"/>
 </g>
</svg>
