<?xml version="1.0" encoding="UTF-8"?>
<svg width="60" height="60" version="1.1" viewBox="-5 -10 76.656 78.906" xmlns="http://www.w3.org/2000/svg">
 <path fill="white" d="m-0.21874 9.7657-0.46094 0.88672-0.4375 0.90234-0.41016 0.90625-0.38672 0.90625-0.36719 0.90625-0.33984 0.91016-0.31641 0.91406-0.29297 0.91406-0.27344 0.91406-0.24609 0.91406-0.22656 0.91797-0.19922 0.91797-0.17578 0.91406-0.16016 0.91797-0.13281 0.91406-0.11328 0.91406-0.09375 0.91406-0.06641 0.91016-0.05078 0.91016-0.02344 0.90625-0.0078 0.90625 0.01172 0.90234 0.03516 0.89844 0.05469 0.89453 0.07813 0.89062 0.09375 0.89062 0.11328 0.88281 0.13281 0.875 0.15234 0.875 0.17188 0.87109 0.1875 0.86328 0.21094 0.85937 0.22656 0.85156 0.24219 0.84375 0.26562 0.83984 0.28125 0.83203 0.29688 0.82422 0.3125 0.82031 0.33203 0.80859 0.34766 0.80469 0.36719 0.79297 0.37891 0.78516 0.39844 0.77734 0.41406 0.76562 0.42969 0.75781 0.44141 0.74609 0.46094 0.74219 0.47656 0.72656 0.48828 0.71875 0.50781 0.70703 0.51953 0.69531 0.53125 0.6875 0.54687 0.67188 0.5625 0.66016 0.57422 0.64844 0.58594 0.63672 0.60547 0.62109 0.60937 0.61328 0.62891 0.59766 0.64062 0.58594 0.65234 0.56641 0.66406 0.55859 0.67969 0.53906 0.6875 0.52734 0.69922 0.51172 0.71094 0.49609 0.72266 0.48047 0.73047 0.46094 0.74609 0.45312 0.75391 0.42969 0.76562 0.41406 0.77734 0.39844 0.78125 0.38281 0.79687 0.35938 0.80469 0.34375 0.8125 0.32812 0.82031 0.30859 0.83203 0.28906 0.83984 0.26953 0.84766 0.25 0.85547 0.23047 0.86719 0.21484 0.87109 0.1875 0.88281 0.17188 0.88281 0.14844 0.89453 0.12891 0.90234 0.10547 0.90625 0.08594 0.91406 0.0625 0.92188 0.03906 0.92578 0.01563 0.92969-0.0039 0.93359-0.03125 0.94531-0.05078 0.94531-0.07422 0.94922-0.09766 0.66406-0.08984 0.65625-0.09766 0.65625-0.11719 0.64844-0.13281 0.65234-0.14453 0.65625-0.16797 1.2617-0.35937 0.64062-0.21484 0.63281-0.21094 0.625-0.24219 0.625-0.23828 0.61328-0.26563 0.62109-0.26562 0.60938-0.29297 0.60547-0.29297 0.59766-0.32031 0.59375-0.3125 0.58984-0.34375 0.58594-0.34375 0.57812-0.36328 0.57812-0.36719 0.56641-0.38672 0.56641-0.39062 0.55078-0.40625 0.55469-0.41406 1.0859-0.85937 0.53125-0.45313 0.52734-0.45312 0.51562-0.47266 0.51953-0.47266 0.5-0.49219 0.5-0.48828 0.49219-0.51172 0.48828-0.50781 0.47266-0.52344 0.47266-0.53125 0.46094-0.54297 0.45703-0.54297 0.44141-0.5625 0.44141-0.55859 0.42969-0.57422 0.42188-0.57422 0.41406-0.58984 0.41016-0.58984 0.39062-0.60547 0.39062-0.60156 0.75-1.2344 0.71094-1.2578 0.33984-0.64062 0.33594-0.64063 0.63281-1.3047 0.30078-0.66406 0.29688-0.66016 0.55469-1.3438 0.25391-0.67969 0.25781-0.67969 0.23828-0.69141 0.23438-0.6875 0.20703-0.69531 0.21484-0.69922 0.19141-0.69922 0.1875-0.70703 0.16797-0.70703 0.16406-0.70703 0.14453-0.71484 0.14062-0.71484 0.11719-0.71875 0.12109-0.71875 0.09375-0.72266 0.09375-0.71875 0.06641-0.73047 0.06641-0.72266 0.08594-1.4531 0.01172-0.73047 0.01563-0.73047-0.01172-0.73047-0.01563-0.73047-0.03906-0.72656-0.03906-0.73047-0.07031-0.73047-0.06641-0.73047-0.10156-0.72656-0.09766-0.72656-0.12891-0.72266-0.125-0.72656-0.15625-0.72656-0.16016-0.71875-0.1875-0.71875-0.1875-0.71484-0.17969-0.58203-0.19922-0.60156-0.22656-0.61719-0.25391-0.63281-0.27734-0.64844-0.30469-0.66797-0.32812-0.67578-0.35156-0.69531-0.38281-0.69922-0.40234-0.71484-0.42969-0.71875-0.45312-0.72656-0.47656-0.73438-0.50781-0.73828-0.52734-0.73828-0.55078-0.74219-0.57812-0.74219-0.60156-0.73828-0.625-0.73828-0.65234-0.73438-0.67578-0.72656-0.69922-0.71875-0.72656-0.71875-0.74609-0.69922-0.77344-0.69141-0.79688-0.67969-0.82031-0.66406-0.83984-0.64844-0.87109-0.63281-0.89453-0.60938-0.91406-0.59375-0.9375-0.57422-0.96484-0.55078-0.98438-0.51953-1.0117-0.5-1.0312-0.46875-1.0586-0.44141-1.0781-0.41406-1.1016-0.375-1.125-0.34375-1.1484-0.3125-1.168-0.26953-1.1914-0.23828-1.2148-0.19531-1.2383-0.15234-1.2539-0.11328-1.2812-0.06641-1.293-0.01953-0.66406 0.0078-0.66797 0.0078-1.2891 0.05469-1.2656 0.08984-1.2344 0.11719-1.2109 0.15234-1.1758 0.18359-1.1523 0.20703-1.1211 0.24219-1.0938 0.26562-1.0664 0.28906-1.043 0.31641-1.0117 0.33984-0.98438 0.35938-0.96094 0.38281-0.92969 0.39844-0.90625 0.42187-0.88281 0.4375-0.85156 0.45313-0.82812 0.46484-0.80469 0.48047-0.77734 0.49219-0.75391 0.50391-0.72656 0.51562-0.70312 0.52344-0.67969 0.52734-0.65625 0.53906-0.62891 0.53906-0.60938 0.54688-0.58984 0.54688-0.5625 0.55078-0.53906 0.54688-0.51953 0.55078-0.49219 0.54688-0.47656 0.53906-0.45312 0.53906-0.42969 0.53125-0.41406 0.52734-0.39062 0.51953-0.36719 0.50391-0.35156 0.5-0.33203 0.48438-0.30859 0.47656-0.29297 0.45703-0.27344 0.44531-0.25391 0.42969-0.23828 0.41016-0.21875 0.39453-0.19531 0.36719c-0.26953 0.5-0.08203 1.125 0.41797 1.3906 0.5 0.26953 1.1211 0.08203 1.3906-0.41797l0.19141-0.35156 0.20312-0.37109 0.22266-0.38281 0.23828-0.40234 0.25781-0.41797 0.27734-0.4375 0.29297-0.44531 0.3125-0.46094 0.33203-0.46875 0.34766-0.48437 0.37109-0.48438 0.38672-0.5 0.41016-0.50391 0.42578-0.51172 0.45313-0.51172 0.46875-0.51953 0.48437-0.51563 0.51563-0.51953 0.53125-0.51953 0.55078-0.51953 0.57422-0.51172 0.59766-0.51172 0.62109-0.50781 0.64062-0.5 0.66406-0.49219 0.6875-0.48828 0.71094-0.47656 0.73438-0.46484 0.75391-0.45312 0.78516-0.44141 0.80469-0.42578 0.82812-0.41406 0.85938-0.39453 0.87891-0.37891 0.90625-0.35938 0.93359-0.33984 0.95703-0.32422 0.98047-0.30078 1.0156-0.27344 1.0352-0.25391 1.0664-0.22266 1.0977-0.20312 1.1172-0.17188 1.1523-0.14453 1.1797-0.11719 1.207-0.08203 1.2383-0.05469 1.2578-0.01563 1.2383 0.01953 1.2031 0.0625 1.1836 0.10547 1.1641 0.14453 1.1406 0.18359 1.125 0.22266 1.1016 0.25391 1.0781 0.29297 1.0586 0.32422 1.0391 0.35547 1.0195 0.38672 0.99219 0.41797 0.97656 0.44141 0.95312 0.46875 0.93359 0.5 0.91016 0.51562 0.89063 0.53906 0.86719 0.5625 0.85156 0.58203 0.82031 0.59766 0.80469 0.61719 0.78125 0.63281 0.75781 0.64453 0.73438 0.66016 0.71484 0.66797 0.6875 0.67969 0.66797 0.6875 0.64844 0.69141 0.62109 0.70313 0.59766 0.70312 0.57422 0.70703 0.55469 0.70703 0.52344 0.70703 0.50781 0.70703 0.48047 0.70312 0.45703 0.69531 0.42969 0.69141 0.40625 0.68359 0.38672 0.67578 0.35937 0.66016 0.33203 0.65234 0.30859 0.63672 0.28125 0.625 0.26172 0.60156 0.23438 0.58594 0.20703 0.57031 0.18359 0.53906 0.15625 0.51562 0.17969 0.67969 0.17969 0.67578 0.14844 0.68359 0.15234 0.67969 0.23438 1.3672 0.09766 0.69141 0.09375 0.6875 0.13281 1.375 0.03516 0.69141 0.03906 0.69531 0.01172 0.69141 0.01563 0.69141-0.01563 0.69141-0.01172 0.69141-0.03906 0.6875-0.03906 0.69141-0.06641 0.69141-0.0625 0.69141-0.08594 0.6875-0.08984 0.68359-0.10937 0.68359-0.11328 0.6875-0.13672 0.68359-0.13281 0.67578-0.16016 0.67969-0.15625 0.67578-0.17969 0.66797-0.18359 0.67188-0.20313 0.66797-0.20312 0.66406-0.21875 0.65625-0.22656 0.66016-0.24219 0.65234-0.25 0.64844-0.26172 0.64844-0.26562 0.64063-0.28516 0.63281-0.28125 0.63281-0.60938 1.25-0.32422 0.61328-0.32031 0.61719-0.33984 0.59766-0.33984 0.60547-0.71875 1.1797-0.375 0.58203-0.375 0.57812-0.39062 0.5625-0.39062 0.56641-0.41016 0.55078-0.40625 0.54687-0.42188 0.53906-0.42187 0.53516-0.875 1.0391-0.90625 1.0078-0.46484 0.48828-0.46484 0.48437-0.47656 0.46875-0.48047 0.46875-0.48828 0.44922-0.49609 0.44922-0.50391 0.42969-0.5 0.43359-1.0312 0.82031-0.52344 0.38672-0.52734 0.39063-0.53516 0.37109-0.53906 0.36719-0.54297 0.34766-0.54297 0.34375-0.55469 0.32422-0.55859 0.32422-0.5625 0.29688-0.5625 0.30078-1.1406 0.55469-0.57812 0.24609-0.58203 0.25391-0.58594 0.22266-0.58594 0.22656-0.58984 0.19922-0.58203 0.19531-1.2188 0.34766-0.58984 0.14844-0.60156 0.13672-0.60938 0.12109-0.60938 0.11328-0.60938 0.09375-0.61328 0.07813-0.90625 0.09766-0.89844 0.07031-0.89063 0.05078-0.89062 0.02734-0.87891 0.0078-0.87891-0.01953-0.87109-0.03516-0.86719-0.05859-0.85938-0.08203-0.85156-0.09375-0.84375-0.125-0.83984-0.14062-0.83594-0.15625-0.82422-0.18359-0.82031-0.19922-0.80859-0.21484-0.80469-0.23828-0.79687-0.25781-0.78516-0.26953-0.77734-0.29297-0.77344-0.3125-0.76172-0.32422-0.75391-0.34375-0.74219-0.36328-0.73828-0.375-0.72656-0.39063-0.71484-0.41016-0.70703-0.42578-0.69531-0.44141-0.6875-0.45703-0.67578-0.46875-0.66406-0.48438-0.65625-0.5-0.64062-0.51562-0.63672-0.53125-0.61719-0.53906-0.60938-0.55469-0.59766-0.57031-0.58594-0.58203-0.57422-0.59375-0.55859-0.60547-0.54688-0.61719-0.53906-0.62891-0.51562-0.64062-0.51172-0.65234-0.49219-0.66406-0.48047-0.67188-0.46875-0.68359-0.45312-0.69531-0.4375-0.70312-0.42578-0.71484-0.41016-0.72266-0.39453-0.73047-0.37891-0.74219-0.35937-0.74609-0.35156-0.75391-0.33203-0.76563-0.31641-0.77344-0.29688-0.77734-0.28516-0.78516-0.26953-0.79297-0.25-0.79688-0.23047-0.80859-0.21484-0.8125-0.20312-0.8125-0.17969-0.82422-0.16406-0.82812-0.14063-0.83203-0.12891-0.83594-0.10938-0.83984-0.08984-0.84375-0.07031-0.84766-0.05469-0.85156-0.03125-0.85547-0.01563-0.85547 0.0078-0.86328 0.02344-0.85938 0.04688-0.86328 0.06641-0.87109 0.08984-0.86328 0.10547-0.87109 0.12891-0.87109 0.14844-0.86719 0.16797-0.875 0.19141-0.87109 0.21484-0.87109 0.23438-0.87109 0.25781-0.87109 0.27734-0.87109 0.30469-0.86719 0.32422-0.87109 0.34766-0.86328 0.37109-0.86719 0.39453-0.86328 0.41406-0.85938 0.44922-0.86328c0.24609-0.48047 0.05859-1.0664-0.42188-1.3125-0.47266-0.24609-1.0625-0.05859-1.3086 0.41797zm33.023 3.6797-0.50781 0.04687-0.52344 0.09375-0.5 0.125-0.47656 0.16016-0.45312 0.19922-0.42578 0.23047-0.39844 0.25781-0.375 0.28906-0.34375 0.30859-0.32031 0.33203-0.28906 0.35547-0.26172 0.37109-0.23438 0.38672-0.21484 0.40234-0.17969 0.41016-0.16016 0.42187-0.13281 0.43359-0.10937 0.4375-0.08594 0.44141-0.0625 0.44922-0.03906 0.44531-0.01563 0.44922 0.0078 0.45313 0.03125 0.44922 0.05078 0.44141 0.07422 0.44531 0.09766 0.43359 0.11719 0.43359 0.14062 0.42188 0.16406 0.40625 0.18359 0.40234 0.21094 0.38672 0.23437 0.37109 0.25391 0.35547 0.28125 0.34375 0.30859 0.3125 0.32813 0.29688 0.35547 0.26562 0.37891 0.24219 0.39844 0.21094 0.42578 0.17578 0.44141 0.13672 0.46484 0.10547 0.48438 0.06641 0.49219 0.01563 0.51172-0.01563 0.52344-0.0625 0.53125-0.10937 0.53906-0.14063 0.51563-0.16797 0.48828-0.19141 0.46484-0.21875 0.4375-0.24219 0.40625-0.26172 0.38281-0.28125 0.35547-0.30469 0.32422-0.32031 0.30078-0.33594 0.27734-0.35156 0.24219-0.36719 0.21484-0.375 0.19531-0.38672 0.16016-0.39453 0.13672-0.39844 0.11328-0.41016 0.08203-0.41016 0.0625-0.41016 0.03906-0.42188 0.01172-0.41016-0.0078-0.41797-0.03125-0.41016-0.05859-0.41016-0.07422-0.40625-0.09766-0.40234-0.11719-0.39453-0.13672-0.38281-0.16016-0.38672-0.17969-0.36719-0.19531-0.35938-0.21484-0.35547-0.23828-0.33203-0.25391-0.32422-0.27344-0.3125-0.29297-0.28906-0.30859-0.27734-0.33203-0.25781-0.34375-0.23828-0.36328-0.21094-0.37891-0.19531-0.39453-0.16406-0.41016-0.14062-0.42578-0.11328-0.4375-0.08203-0.44531-0.05078-0.46094-0.02344-0.4375 0.01172c-0.56641 0.01562-1.0156 0.48828-1 1.0586 0.01953 0.56641 0.49219 1.0156 1.0625 0.99609l0.35937-0.0078 0.3125 0.01172 0.30078 0.03516 0.29688 0.05469 0.28125 0.07422 0.27734 0.09375 0.26563 0.11328 0.25 0.125 0.24609 0.14844 0.23828 0.16016 0.22266 0.17578 0.21484 0.19531 0.20703 0.20313 0.19531 0.21875 0.18359 0.23437 0.17188 0.24219 0.15625 0.25391 0.14453 0.26562 0.13281 0.26953 0.11719 0.28125 0.10156 0.28516 0.08984 0.29297 0.07031 0.29687 0.05469 0.30078 0.04297 0.30078 0.02344 0.30469 0.0078 0.30078-0.0078 0.30078-0.02344 0.29688-0.04297 0.29688-0.0625 0.29297-0.07422 0.28516-0.09766 0.28125-0.10938 0.27344-0.12891 0.26562-0.15234 0.26172-0.16406 0.25391-0.1875 0.23828-0.20703 0.23438-0.22656 0.22656-0.24609 0.21484-0.27344 0.20312-0.29688 0.19141-0.32031 0.17578-0.34375 0.16797-0.375 0.14844-0.39844 0.13672-0.42969 0.11328-0.39062 0.08203-0.36719 0.04297-0.34766 0.01563-0.32812-0.01172-0.30469-0.03906-0.29297-0.0625-0.28125-0.08594-0.26172-0.10547-0.25-0.13281-0.23828-0.14844-0.22656-0.16797-0.21484-0.19531-0.20703-0.21094-0.19141-0.22656-0.17969-0.24609-0.16797-0.26562-0.15234-0.27734-0.14062-0.29687-0.125-0.30859-0.10547-0.31641-0.08984-0.32813-0.07813-0.33984-0.05859-0.33984-0.03906-0.34766-0.02344-0.35156-0.0078-0.35156 0.01172-0.35156 0.02734-0.35156 0.04688-0.34375 0.06641-0.33984 0.08203-0.33594 0.10156-0.32031 0.11328-0.31641 0.13672-0.30078 0.14844-0.28906 0.16797-0.27734 0.18359-0.26172 0.19922-0.24219 0.21875-0.22656 0.23438-0.21484 0.24609-0.19141 0.26953-0.17187 0.28516-0.15625 0.30469-0.12891 0.33203-0.11328 0.34766-0.08984 0.375-0.06641 0.4375-0.03906c0.53125-0.05469 0.92578-0.53125 0.875-1.0625-0.05078-0.53516-0.52734-0.92969-1.0625-0.875zm-5.4805 16.016 0.41797 0.3125 0.4375 0.30859 0.4375 0.28125 0.4375 0.26562 0.4375 0.23828 0.4375 0.22266 0.44141 0.20312 0.44141 0.18359 0.44141 0.15625 0.44141 0.14453 0.4375 0.12109 0.4375 0.09766 0.4375 0.08203 0.4375 0.05859 0.4375 0.04297 0.42969 0.01953 0.42969 0.0039 0.42578-0.01953 0.42188-0.03516 0.42188-0.05859 0.41406-0.07813 0.40625-0.09375 0.40625-0.11328 0.39453-0.12891 0.39063-0.15234 0.39062-0.16406 0.375-0.18359 0.37109-0.19922 0.36328-0.21875 0.35547-0.23438 0.34766-0.25 0.33984-0.26953 0.32812-0.28125 0.31641-0.29688 0.3125-0.3125 0.30078-0.32812 0.29297-0.33984 0.28125-0.35547 0.26562-0.37109 0.26172-0.38281 0.25-0.39062 0.23828-0.41016 0.22656-0.41797 0.21484-0.4375 0.20703-0.44141 0.19141-0.45703 0.17969-0.47266 0.16406-0.46484c0.1875-0.53516-0.09375-1.1211-0.63281-1.3086-0.53516-0.1875-1.1211 0.09766-1.3086 0.62891l-0.14844 0.4375-0.15625 0.41016-0.17187 0.40234-0.17188 0.38672-0.1875 0.37109-0.19531 0.36328-0.20312 0.34766-0.21094 0.33594-0.21875 0.32031-0.22656 0.3125-0.23047 0.29687-0.24219 0.28516-0.24609 0.27344-0.25391 0.25391-0.25781 0.25-0.26562 0.23047-0.27344 0.21484-0.27344 0.20312-0.28516 0.19141-0.28516 0.17578-0.29297 0.16016-0.29688 0.15234-0.30078 0.13281-0.30469 0.11719-0.3125 0.10937-0.3125 0.08984-0.32031 0.07813-0.32422 0.0625-0.32422 0.04687-0.33203 0.03125-0.33594 0.01953h-0.33594l-0.34375-0.01563-0.34766-0.02734-0.34766-0.04687-0.35937-0.0625-0.35547-0.07813-0.35938-0.09766-0.36328-0.11328-0.36719-0.13281-0.36719-0.14844-0.375-0.16797-0.375-0.1875-0.37109-0.20703-0.37891-0.23047-0.37891-0.24609-0.37891-0.26562-0.39453-0.29688c-0.42969-0.32031-1.0391-0.23828-1.3633 0.19531-0.32422 0.42578-0.23437 1.0352 0.19141 1.3633zm-13.656 10.324-0.24219 0.16406-0.25391 0.19922-0.23828 0.21875-0.21875 0.22656-0.20312 0.24219-0.18359 0.25-0.16797 0.25391-0.15234 0.26953-0.14062 0.27344-0.12109 0.27734-0.10547 0.28516-0.09766 0.30859-0.13672 0.5625-0.08594 0.58984-0.02734 0.58984 0.02344 0.58594 0.08203 0.57812 0.13281 0.55469 0.19141 0.53906 0.25391 0.51172 0.29688 0.44531 0.20312 0.24219 0.20313 0.21094 0.21875 0.1875 0.23828 0.17187 0.25781 0.15625 0.26953 0.125 0.28125 0.10938 0.30469 0.07812 0.30469 0.05469 0.31641 0.02344h0.32812l0.33203-0.03125 0.33203-0.0625 0.33984-0.08594 0.34375-0.11719 0.34375-0.13672 0.35156-0.16797 0.35547-0.19531 0.34766-0.21875 0.32813-0.23047 0.30469-0.24219 0.28125-0.25 0.26172-0.26562 0.23828-0.27344 0.21484-0.28125 0.19531-0.28906 0.17188-0.29688 0.14453-0.30078 0.12891-0.30469 0.10547-0.3125 0.07813-0.30859 0.0625-0.31641 0.03906-0.30859 0.02344-0.30859v-0.30859l-0.01953-0.30469-0.03906-0.30078-0.05469-0.29688-0.07422-0.28906-0.08984-0.28125-0.10547-0.27734-0.13281-0.29297-0.27734-0.48438-0.35156-0.46875-0.38281-0.39453-0.24219-0.21484-0.23828-0.17188-0.24609-0.16016-0.26172-0.14453-0.26953-0.125-0.28125-0.10156-0.29297-0.08594-0.30078-0.06641-0.30859-0.03516-0.3125-0.01953-0.32031 0.0078-0.32031 0.03516-0.32422 0.05469-0.32812 0.08594-0.32031 0.10938-0.32422 0.13281-0.32422 0.16406-0.28516 0.17188c-0.49219 0.28906-0.65234 0.91797-0.36328 1.4102 0.28906 0.48828 0.92188 0.64844 1.4102 0.35938l0.23047-0.13672 0.19141-0.10156 0.19141-0.07813 0.1875-0.06641 0.17578-0.04297 0.17188-0.03125 0.16406-0.01953 0.16016-0.0039 0.15625 0.01172 0.15234 0.01953 0.14453 0.02734 0.14453 0.04297 0.14062 0.05078 0.13281 0.0625 0.13672 0.07422 0.12891 0.08203 0.125 0.08984 0.09375 0.08594 0.25 0.25 0.19922 0.26172 0.17969 0.32031 0.05859 0.13281 0.0625 0.16016 0.05469 0.16406 0.04297 0.17188 0.03516 0.16797 0.02344 0.17969 0.01172 0.17578v0.17969l-0.01172 0.17969-0.01953 0.18359-0.03516 0.17969-0.04687 0.18359-0.0625 0.1875-0.07031 0.17578-0.08984 0.18359-0.10156 0.18359-0.12109 0.17969-0.13281 0.18359-0.15234 0.17578-0.17188 0.17578-0.19531 0.17578-0.20703 0.17188-0.23437 0.16406-0.25781 0.16406-0.25781 0.14453-0.24219 0.12109-0.23047 0.09375-0.21484 0.07422-0.19531 0.05078-0.17969 0.03516-0.17187 0.01562-0.15234 0.0039-0.14062-0.01172-0.12891-0.01953-0.12109-0.03125-0.11328-0.03906-0.10938-0.05078-0.09766-0.05859-0.10156-0.07422-0.09766-0.08203-0.09375-0.08984-0.06641-0.08203-0.19141-0.27734-0.14453-0.28516-0.11719-0.33203-0.08984-0.36719-0.05469-0.38281-0.01953-0.40234 0.01953-0.41406 0.05469-0.41016 0.10547-0.42187 0.05469-0.17578 0.07422-0.1875 0.07812-0.18359 0.08984-0.18359 0.09766-0.16797 0.10547-0.16406 0.11328-0.15625 0.125-0.14063 0.12891-0.14062 0.14062-0.125 0.14453-0.11328 0.1875-0.12891c0.44531-0.30078 0.55469-0.90625 0.25781-1.3516-0.30469-0.44141-0.91016-0.55859-1.3555-0.25391zm7.8164 2.125 0.19531 0.39453 0.125 0.35156 0.08594 0.36719 0.05469 0.37891 0.01563 0.38672-0.02344 0.39453-0.05469 0.40625-0.08984 0.41016-0.125 0.41406-0.15234 0.42187-0.18359 0.41797-0.21094 0.41016-0.23828 0.41016-0.25391 0.40234-0.28125 0.39062-0.29688 0.37891-0.3125 0.36328-0.32422 0.34375-0.33594 0.33203-0.34375 0.30078-0.34766 0.28516-0.34766 0.25781-0.34766 0.22656-0.37109 0.21484c-0.48828 0.28516-0.65625 0.91406-0.37109 1.4062 0.28906 0.48828 0.91797 0.65625 1.4062 0.37109l0.41797-0.24609 0.44141-0.29297 0.43359-0.31641 0.41797-0.34766 0.41016-0.37109 0.40234-0.39453 0.38281-0.41797 0.36719-0.4375 0.34766-0.45312 0.32813-0.47266 0.30469-0.49219 0.27734-0.50391 0.25391-0.51172 0.22266-0.53125 0.1875-0.53516 0.15234-0.54687 0.11328-0.55859 0.07031-0.55859 0.02734-0.56641-0.02734-0.56641-0.08203-0.56641-0.13281-0.55859-0.19922-0.55859-0.24219-0.48828c-0.23828-0.48437-0.81641-0.68359-1.3008-0.44531-0.48438 0.23438-0.68359 0.82031-0.44531 1.3008zm18.836 4.0234-0.24609-0.03906-0.28516-0.02734-0.28125 0.0039-0.27734 0.02734-0.26953 0.05859-0.26172 0.07422-0.25 0.09766-0.23828 0.11328-0.23047 0.13281-0.21875 0.14844-0.20703 0.16016-0.21875 0.19141-0.33984 0.35938-0.32031 0.41797-0.28125 0.44922-0.24609 0.47266-0.20313 0.50391-0.16016 0.51562-0.12109 0.52734-0.07812 0.54297-0.02734 0.54687 0.02344 0.54297 0.08203 0.55078 0.14063 0.53125 0.21094 0.51563 0.28906 0.5 0.33594 0.42578 0.23438 0.23438 0.23047 0.19922 0.25 0.17578 0.26562 0.16016 0.28516 0.14453 0.30078 0.12109 0.41797 0.14453 0.41016 0.11328 0.39844 0.07812 0.38672 0.05859 0.38281 0.02344 0.36719-0.0039 0.35547-0.03516 0.34766-0.0625 0.32812-0.09766 0.3125-0.12109 0.29688-0.15234 0.27734-0.17188 0.25391-0.20312 0.23437-0.21875 0.20313-0.23438 0.1875-0.25 0.16406-0.26562 0.14062-0.27734 0.11719-0.28125 0.10547-0.28906 0.08203-0.29297 0.0625-0.30078 0.04688-0.30469 0.03125-0.33203 0.01172-0.58984-0.05078-0.62109-0.10547-0.61719-0.16406-0.60156-0.22266-0.59375-0.27344-0.5625-0.33594-0.53516-0.39453-0.5-0.43359-0.41797-0.27734-0.21875-0.26953-0.18359-0.28516-0.16016-0.30078-0.14062-0.32031-0.11719-0.28125-0.07813c-0.55078-0.14453-1.1133 0.17969-1.2617 0.73047-0.14453 0.54688 0.17969 1.1133 0.72656 1.2578l0.19922 0.05078 0.14844 0.05469 0.15234 0.07031 0.14453 0.08203 0.14062 0.09375 0.10938 0.08203 0.29297 0.28125 0.23828 0.29687 0.21484 0.34375 0.19141 0.38281 0.14844 0.40234 0.11719 0.42578 0.07422 0.42969 0.03516 0.42578-0.01172 0.4375-0.01563 0.17578-0.02734 0.1875-0.03906 0.18359-0.04688 0.17578-0.05078 0.16016-0.0625 0.14844-0.07422 0.14062-0.07422 0.125-0.08203 0.11719-0.09375 0.10156-0.08984 0.08984-0.10156 0.08203-0.11328 0.07422-0.11719 0.0625-0.13281 0.05078-0.14844 0.04297-0.16406 0.03516-0.1875 0.01953-0.20312 0.0039-0.22656-0.01172-0.25-0.03516-0.27344-0.05469-0.29297-0.07813-0.32422-0.10547-0.16016-0.0625-0.14453-0.07031-0.13281-0.08203-0.125-0.08594-0.10937-0.08984-0.07813-0.07031-0.20312-0.24609-0.14063-0.24219-0.11328-0.28125-0.08984-0.30859-0.04688-0.32812-0.01562-0.35938 0.01562-0.36719 0.04688-0.36719 0.08594-0.375 0.11328-0.36328 0.14062-0.34766 0.16406-0.32812 0.1875-0.30078 0.19922-0.26172 0.23438-0.24219 0.08984-0.07813 0.10547-0.07812 0.10547-0.07422 0.10547-0.0625 0.10547-0.05078 0.10156-0.03906 0.10156-0.02734 0.09766-0.01953 0.09766-0.01172h0.10156l0.09766 0.0039 0.15234 0.03125c0.53125 0.09375 1.0352-0.25781 1.1289-0.78516 0.09766-0.52734-0.25391-1.0352-0.78125-1.1328zm-7.6328 5.3047-0.05469 0.42578-0.03906 0.44922-0.0078 0.4375 0.01172 0.42969 0.03516 0.42578 0.0625 0.41406 0.08594 0.40234 0.11328 0.39453 0.14062 0.37891 0.16406 0.36719 0.19922 0.35547 0.21875 0.33594 0.25 0.3125 0.28125 0.29688 0.30469 0.27344 0.32812 0.24609 0.35156 0.22266 0.37891 0.19141 0.39453 0.16016 0.41797 0.13672 0.4375 0.10156 0.44922 0.07422 0.47266 0.04687 0.45703 0.01563c0.56641 0.01562 1.0391-0.42969 1.0547-1 0.01563-0.56641-0.42969-1.0391-1-1.0547l-0.39062-0.0078-0.32813-0.03125-0.31641-0.05078-0.29297-0.07031-0.26563-0.08203-0.25-0.09766-0.22656-0.11328-0.21094-0.125-0.19141-0.14062-0.18359-0.15234-0.15625-0.16406-0.15234-0.17969-0.14062-0.19922-0.11719-0.20313-0.10938-0.23047-0.09766-0.24219-0.08203-0.25781-0.0625-0.27344-0.04687-0.29297-0.02734-0.30078-0.01172-0.32031 0.0039-0.33203 0.03125-0.34375 0.04688-0.375c0.07031-0.53516-0.30859-1.0234-0.83984-1.0938-0.53516-0.07031-1.0195 0.30859-1.0898 0.83984zm30.945-33.176-0.28516 0.01172-0.32422 0.04687-0.30859 0.07422-0.30078 0.09766-0.28906 0.125-0.27344 0.14453-0.26172 0.16406-0.25 0.18359-0.23047 0.19531-0.22266 0.21484-0.20703 0.22266-0.21094 0.25781-0.33984 0.48047-0.3125 0.53906-0.26172 0.5625-0.21484 0.58984-0.16797 0.60156-0.11719 0.60938-0.07031 0.61719-0.01172 0.61328 0.05078 0.60937 0.10547 0.59375 0.1875 0.57813 0.24609 0.51172 0.18359 0.28906 0.19141 0.24609 0.21094 0.23438 0.23828 0.20703 0.26172 0.19531 0.28125 0.16016 0.30078 0.14062 0.32422 0.11719 0.32812 0.08203 0.34766 0.05469 0.36719 0.02734h0.36719l0.37109-0.03125 0.35937-0.05469 0.34375-0.07813 0.33203-0.10156 0.32422-0.125 0.30469-0.14453 0.28906-0.16797 0.27734-0.1875 0.25391-0.19922 0.24609-0.21484 0.22266-0.23047 0.20703-0.24219 0.19531-0.25391 0.17578-0.26562 0.15625-0.26563 0.14453-0.28125 0.13281-0.28516 0.11719-0.3125 0.17969-0.57031 0.125-0.60938 0.06641-0.61328 0.01172-0.60938-0.04687-0.60937-0.10547-0.59766-0.16797-0.57812-0.23438-0.55859-0.28125-0.49609-0.19141-0.27344-0.19922-0.23438-0.21484-0.21875-0.23047-0.20703-0.25781-0.1875-0.26953-0.16406-0.28516-0.14453-0.30469-0.12109-0.31641-0.09375-0.32812-0.07031-0.34375-0.04297-0.3125-0.01172c-0.56641-0.01953-1.043 0.42187-1.0625 0.98828-0.01953 0.57031 0.42187 1.043 0.98828 1.0664l0.22656 0.0078 0.17188 0.01953 0.16016 0.03125 0.14453 0.04297 0.13672 0.05469 0.125 0.06641 0.125 0.07422 0.10938 0.08203 0.10937 0.09766 0.10938 0.10547 0.09375 0.11328 0.07812 0.10547 0.18359 0.31641 0.13672 0.32813 0.10547 0.36328 0.07422 0.39453 0.03125 0.41016-0.01172 0.42578-0.04297 0.42187-0.08203 0.42188-0.13281 0.42578-0.06641 0.17578-0.08594 0.1875-0.09375 0.18359-0.09766 0.17578-0.10938 0.16406-0.12109 0.15625-0.125 0.14844-0.125 0.13281-0.14062 0.12891-0.14844 0.12109-0.15234 0.10156-0.16406 0.09375-0.17188 0.08594-0.17578 0.07031-0.19141 0.05859-0.20312 0.05078-0.21094 0.03516-0.22656 0.01953h-0.22656l-0.19531-0.01172-0.18359-0.02734-0.15625-0.03906-0.14063-0.04688-0.125-0.05859-0.11719-0.06641-0.10156-0.07031-0.09375-0.08594-0.09375-0.09375-0.08203-0.10937-0.05859-0.08594-0.15625-0.30859-0.10938-0.32422-0.06641-0.37109-0.03906-0.41016 0.01172-0.42578 0.04688-0.44922 0.08594-0.45703 0.12109-0.44922 0.16406-0.4375 0.19141-0.42188 0.21484-0.37891 0.26172-0.36719 0.11328-0.13672 0.12891-0.14453 0.14062-0.12891 0.13672-0.11719 0.13672-0.10156 0.14062-0.08594 0.14062-0.07422 0.13281-0.05859 0.14453-0.04687 0.14062-0.03516 0.14062-0.01953 0.19141-0.0078c0.53516-0.02344 0.95312-0.48047 0.92969-1.0156-0.02734-0.53516-0.48047-0.95312-1.0156-0.92969zm-7.8438 3.0508-0.24219 0.69531-0.19531 0.72656-0.14453 0.72266-0.08984 0.71875-0.03125 0.72656 0.03516 0.71484 0.08984 0.71094 0.15625 0.70703 0.21875 0.69141 0.27734 0.68359 0.34375 0.67188 0.37891 0.62109c0.30078 0.48438 0.9375 0.63281 1.418 0.33203 0.48438-0.29687 0.62891-0.92969 0.33203-1.4102l-0.34375-0.55469-0.26953-0.51953-0.21875-0.53125-0.17969-0.52734-0.12891-0.52734-0.07812-0.53906-0.04297-0.54688 0.01172-0.55859 0.05859-0.56641 0.10938-0.57812 0.15625-0.58984 0.21875-0.62891c0.17578-0.50781-0.08984-1.0625-0.59766-1.2422-0.50782-0.1797-1.0625 0.08984-1.2422 0.59766zm-39.27-26.086 0.06641 0.29297 0.04687 0.26172 0.03125 0.26953 0.01953 0.27344 0.0039 0.27344-0.01172 0.27734-0.02734 0.28125-0.03906 0.27734-0.05469 0.28125-0.06641 0.28125-0.07813 0.27734-0.08984 0.26172-0.22266 0.5625-0.26172 0.51563-0.3125 0.5-0.33594 0.46484-0.36719 0.42188-0.41016 0.39453-0.19141 0.15625-0.20703 0.15625-0.20703 0.14453-0.21875 0.13281-0.21094 0.11328-0.21484 0.10156-0.21484 0.08594-0.21484 0.07031-0.21484 0.05469-0.21094 0.03906-0.20703 0.02344-0.21484 0.01172-0.20703-0.0078-0.20703-0.02344-0.21094-0.03906-0.20703-0.05469-0.21094-0.07422-0.21094-0.09766-0.21484-0.11719-0.21875-0.14062-0.21875-0.16406-0.22656-0.19141-0.22266-0.21875-0.24219-0.26953c-0.38281-0.42188-1.0312-0.45312-1.4531-0.07031-0.41797 0.37891-0.45312 1.0312-0.07422 1.4492l0.28906 0.31641 0.32031 0.30859 0.32812 0.27734 0.33203 0.25 0.34375 0.21875 0.35156 0.1875 0.35547 0.16016 0.36328 0.12891 0.36328 0.09766 0.36719 0.06641 0.36719 0.04297 0.36328 0.0039 0.35938-0.01563 0.35938-0.04297 0.35156-0.07031 0.33984-0.09375 0.33984-0.11328 0.32422-0.13672 0.32031-0.15234 0.3125-0.17578 0.30469-0.1875 0.28906-0.20312 0.28516-0.22266 0.28516-0.25 0.5-0.49609 0.47656-0.55859 0.42969-0.59766 0.37891-0.64063 0.33203-0.66797 0.26562-0.67578 0.125-0.375 0.10156-0.35937 0.08203-0.36719 0.07031-0.36719 0.05078-0.375 0.03125-0.375 0.01562-0.375v-0.37891l-0.02734-0.37891-0.04687-0.37891-0.06641-0.37891-0.08203-0.34375c-0.12891-0.52344-0.65234-0.84375-1.1758-0.71875-0.52344 0.12891-0.84375 0.65625-0.71484 1.1758zm2.1367 4.3633-0.0078 0.27344-0.01563 0.24609-0.03125 0.23828-0.03906 0.23438-0.04687 0.23047-0.05469 0.20703-0.15625 0.45312-0.1875 0.41406-0.22266 0.39844-0.26172 0.38672-0.29297 0.35938-0.32812 0.34766-0.35156 0.32813-0.38281 0.30469-0.41016 0.28906-0.43359 0.26562-0.44531 0.25-0.47266 0.22266-0.48047 0.20312-0.49219 0.18359-0.50391 0.15625-0.50781 0.13281-0.50781 0.10938-0.50781 0.08594-0.50781 0.0625-0.49219 0.03516-0.51172 0.01172c-0.56641 0.01172-1.0156 0.48437-1.0039 1.0508 0.01172 0.56641 0.48438 1.0156 1.0547 1.0039l0.5625-0.01563 0.59766-0.04687 0.59766-0.07422 0.60156-0.10547 0.60156-0.12891 0.59766-0.16406 0.59375-0.19141 0.58203-0.21875 0.57422-0.25 0.55469-0.27344 0.54297-0.30859 0.52734-0.33984 0.5-0.35938 0.48047-0.39844 0.44531-0.42969 0.42188-0.45313 0.38281-0.48828 0.34375-0.51562 0.30469-0.54688 0.25781-0.57812 0.19531-0.58594 0.08984-0.33203 0.06641-0.32422 0.05469-0.32422 0.03906-0.32812 0.02344-0.33984 0.0078-0.32422c0.01172-0.53516-0.41406-0.98047-0.95312-0.99219-0.53516-0.0078-0.98438 0.41406-0.99219 0.95312zm-20.895 20.758 0.53906 0.01563 0.47266 0.05469 0.45312 0.08594 0.42188 0.10938 0.39844 0.14062 0.375 0.16797 0.35156 0.19141 0.32812 0.21484 0.3125 0.23828 0.28906 0.26563 0.26953 0.27734 0.24609 0.30469 0.23047 0.32422 0.21094 0.33594 0.1875 0.35938 0.16797 0.375 0.14844 0.38281 0.125 0.40625 0.10547 0.40625 0.08203 0.42188 0.0625 0.42578 0.04297 0.43359 0.01953 0.4375-0.0039 0.4375-0.02734 0.4375-0.04687 0.4375-0.06641 0.43359-0.08984 0.42578-0.10938 0.42187-0.12891 0.41016-0.15234 0.40234-0.17187 0.38672-0.1875 0.375-0.21094 0.35938-0.22656 0.33984-0.25 0.32422-0.26563 0.30469-0.27734 0.28125-0.30078 0.26172-0.32031 0.24219-0.33594 0.21484-0.35547 0.19141-0.375 0.16406-0.39062 0.13672-0.41406 0.10938-0.4375 0.08594-0.46094 0.05078-0.51953 0.01562c-0.56641 0.01563-1.0117 0.49219-0.99219 1.0625 0.01953 0.5625 0.49219 1.0117 1.0586 0.99219l0.60156-0.02344 0.61328-0.06641 0.58984-0.11328 0.56641-0.15234 0.54688-0.19531 0.51562-0.23047 0.49609-0.26172 0.46484-0.30469 0.4375-0.32812 0.41016-0.35547 0.37891-0.38672 0.35547-0.40625 0.32031-0.42969 0.29688-0.44922 0.26953-0.46484 0.24219-0.48047 0.21094-0.49219 0.18359-0.50391 0.16016-0.51172 0.13281-0.52344 0.10547-0.52734 0.07813-0.53516 0.05078-0.53516 0.02734-0.53516v-0.53906l-0.02734-0.53516-0.05469-0.53125-0.08203-0.52734-0.10938-0.52734-0.13672-0.51172-0.16406-0.50781-0.19141-0.49219-0.22266-0.47656-0.24609-0.46875-0.28125-0.45312-0.30859-0.42578-0.33984-0.41016-0.37109-0.38281-0.39844-0.35938-0.42969-0.32812-0.46094-0.30078-0.48828-0.26562-0.51562-0.23047-0.54688-0.19141-0.57422-0.15234-0.59375-0.10937-0.62109-0.0625-0.60938-0.02344c-0.53516-0.01953-0.98828 0.40234-1.0039 0.94141-0.01562 0.53516 0.40625 0.98828 0.94141 1.0039zm7.3359-0.78125 0.53906 0.75391 0.46875 0.73438 0.41797 0.73438 0.37109 0.73438 0.31641 0.73047 0.26172 0.72266 0.21484 0.72266 0.16406 0.71484 0.10938 0.71484 0.07031 0.70703 0.01953 0.69922-0.02734 0.69922-0.07813 0.69141-0.12109 0.68359-0.16797 0.67969-0.21094 0.67578-0.26172 0.66797-0.30859 0.66797-0.35156 0.66016-0.40234 0.65234-0.45312 0.64844-0.49609 0.64062-0.54297 0.62891-0.61328 0.64062c-0.39453 0.41016-0.37891 1.0586 0.03125 1.4531 0.41016 0.39062 1.0625 0.37891 1.4531-0.03516l0.64844-0.67969 0.60937-0.71094 0.5625-0.72656 0.51563-0.73828 0.46094-0.75781 0.40625-0.76953 0.35547-0.78125 0.30469-0.79688 0.24609-0.79687 0.19531-0.8125 0.13672-0.82422 0.07813-0.82422 0.02734-0.83203-0.03125-0.83594-0.08594-0.83594-0.14063-0.83594-0.20312-0.83984-0.25391-0.83203-0.30859-0.83594-0.35938-0.83203-0.42187-0.82422-0.46875-0.82031-0.52734-0.82031-0.56641-0.79297c-0.3125-0.4375-0.92188-0.53906-1.3594-0.22656s-0.53906 0.92187-0.22266 1.3594zm38.145-23.371-0.21094 0.10547-0.23047 0.14062-0.21484 0.15625-0.19922 0.16797-0.18359 0.18359-0.1875 0.21875-0.26172 0.38281-0.22266 0.44922-0.16016 0.45703-0.10547 0.47266-0.05469 0.48438v0.48047l0.03906 0.48047 0.08984 0.47656 0.13672 0.46484 0.17188 0.44922 0.22656 0.43359 0.27344 0.40234 0.3125 0.37891 0.37109 0.34375 0.41797 0.28906 0.46094 0.23437 0.51562 0.16797 0.5 0.08203 0.31641 0.01563 0.29297-0.01172 0.28516-0.03516 0.29297-0.04687 0.29688-0.07813 0.30078-0.09766 0.33984-0.13281 0.32031-0.14453 0.29688-0.16016 0.27734-0.17578 0.26172-0.19141 0.23438-0.20312 0.21484-0.21484 0.19141-0.23438 0.16797-0.24219 0.14062-0.25 0.11719-0.26563 0.08984-0.26562 0.0625-0.27344 0.04297-0.27344 0.01563-0.26953-0.0078-0.26562-0.02344-0.26953-0.05469-0.28906-0.12891-0.46875-0.20312-0.48047-0.25-0.44922-0.29688-0.41797-0.33203-0.39844-0.37109-0.35938-0.39453-0.32422-0.43359-0.28906-0.44922-0.24609-0.47266-0.19922-0.5-0.14453-0.51563-0.07422-0.53125-0.0078-0.54297 0.08594-0.44141 0.14844c-0.53516 0.1875-0.82031 0.77734-0.62891 1.3125 0.1875 0.53516 0.76953 0.81641 1.3086 0.62891l0.25781-0.09766 0.19141-0.02734 0.21875 0.0039 0.24609 0.03516 0.25391 0.07422 0.27344 0.11328 0.27344 0.14453 0.26562 0.17969 0.25781 0.21094 0.23828 0.23437 0.21094 0.24219 0.17969 0.26172 0.15234 0.26172 0.10938 0.25391 0.07813 0.27734 0.01563 0.08984 0.01172 0.10938 0.0039 0.10938-0.0078 0.10156-0.01172 0.09375-0.02344 0.09375-0.02734 0.09375-0.03516 0.08984-0.05469 0.09375-0.0625 0.09375-0.07422 0.09375-0.09766 0.09766-0.11328 0.10547-0.13281 0.09766-0.16016 0.10156-0.17969 0.10156-0.20703 0.09766-0.24219 0.09375-0.17578 0.05859-0.16406 0.04297-0.15625 0.03125-0.14844 0.01953-0.13281 0.0078-0.09766-0.0039-0.27734-0.03906-0.21094-0.0625-0.20313-0.10547-0.19531-0.12891-0.17969-0.16016-0.16797-0.19922-0.15234-0.22656-0.12891-0.24609-0.10547-0.27344-0.08594-0.28516-0.05469-0.28906-0.02734-0.29297v-0.29297l0.03125-0.26953 0.05469-0.26172 0.08203-0.23828 0.10156-0.20703 0.14844-0.21094 0.05078-0.05859 0.07422-0.07422 0.08203-0.07031 0.08984-0.0625 0.09375-0.05859 0.13672-0.06641c0.48047-0.23828 0.67969-0.82422 0.44141-1.3047s-0.82031-0.67969-1.3047-0.44141zm-5.0039 4.9453 0.0625 0.50391 0.09766 0.53125 0.13672 0.50391 0.16016 0.49609 0.19531 0.47266 0.22656 0.45703 0.25 0.43359 0.28125 0.41797 0.30469 0.39062 0.33203 0.36719 0.35938 0.34375 0.37891 0.3125 0.40625 0.28906 0.42578 0.25391 0.44531 0.22656 0.46094 0.19141 0.48438 0.16016 0.49609 0.125 0.51172 0.08984 0.52344 0.05078 0.53125 0.01172 0.54297-0.02344 0.55078-0.0625 0.52344-0.09766c0.55859-0.10547 0.92578-0.64453 0.81641-1.2031-0.10547-0.55469-0.64063-0.92578-1.1992-0.81641l-0.45312 0.08594-0.40625 0.05078-0.39844 0.01953-0.38672-0.0078-0.375-0.03906-0.36719-0.05859-0.35156-0.08203-0.33984-0.10937-0.33203-0.12891-0.3125-0.15234-0.30078-0.17578-0.28906-0.19922-0.27344-0.21484-0.25781-0.23828-0.24219-0.25781-0.22656-0.27344-0.20703-0.29687-0.1875-0.3125-0.16406-0.33594-0.14844-0.34766-0.12109-0.36719-0.10156-0.38281-0.07422-0.39453-0.05469-0.44141c-0.06641-0.53516-0.55078-0.91406-1.0859-0.85156-0.53125 0.06641-0.91406 0.55078-0.84766 1.0859zm26.664 46.598-0.34766-0.09766-0.35938-0.08594-0.34766-0.06641-0.34375-0.05859-0.33594-0.03516-0.32812-0.01953-0.31641-0.0078-0.31641 0.01172-0.30469 0.03125-0.29688 0.04297-0.29297 0.0625-0.27734 0.07813-0.27344 0.08984-0.26562 0.10938-0.25 0.125-0.23828 0.13672-0.23437 0.15234-0.23828 0.1875-0.37891 0.34375-0.35156 0.41406-0.30078 0.44531-0.25781 0.47266-0.21094 0.50391-0.17188 0.51953-0.13281 0.53516-0.09766 0.55859-0.05859 0.56641-0.02734 0.57813 0.0078 0.58594 0.03125 0.59375 0.0625 0.59766 0.09375 0.59766 0.11328 0.57812c0.11328 0.55859 0.65234 0.91797 1.2109 0.80469 0.55859-0.10938 0.91797-0.65234 0.80469-1.2109l-0.10938-0.53125-0.07813-0.50391-0.05078-0.50391-0.03516-0.49219-0.0039-0.48437 0.01953-0.46094 0.03906-0.44531 0.06641-0.42188 0.09375-0.39844 0.11328-0.37109 0.13672-0.33594 0.16016-0.30469 0.17578-0.27734 0.19531-0.23437 0.24219-0.22656 0.09375-0.07031 0.125-0.08594 0.125-0.07813 0.14062-0.07031 0.14063-0.0625 0.15625-0.05469 0.16797-0.04687 0.17188-0.03906 0.18359-0.02734 0.19531-0.01953 0.21094-0.01172 0.22266 0.0039 0.23438 0.01172 0.24219 0.02734 0.26172 0.04297 0.26953 0.05078 0.28516 0.06641 0.3125 0.08984c0.51953 0.14453 1.0547-0.15625 1.1992-0.67188 0.14844-0.51562-0.15234-1.0547-0.67188-1.2031zm-5.5039-3.5664-0.46484 0.12891-0.49609 0.20312-0.46875 0.25-0.44531 0.29297-0.42578 0.33203-0.39844 0.35938-0.375 0.39062-0.35547 0.42188-0.33203 0.44141-0.3125 0.46484-0.28516 0.48047-0.26562 0.49609-0.24219 0.50781-0.22266 0.51563-0.19141 0.52734-0.16797 0.52734-0.14062 0.53516-0.11328 0.53125-0.08203 0.53125-0.05859 0.52344-0.01563 0.51953 0.0078 0.50781 0.04687 0.50391 0.07422 0.44141c0.10156 0.55859 0.63672 0.92969 1.1953 0.83203 0.55859-0.10156 0.92969-0.63672 0.83203-1.1953l-0.06641-0.35547-0.03516-0.33984-0.0078-0.37109 0.01562-0.39453 0.03906-0.41016 0.07031-0.42578 0.08594-0.4375 0.10938-0.4375 0.13281-0.44141 0.15625-0.44141 0.17188-0.4375 0.19922-0.42969 0.21094-0.41406 0.23047-0.39844 0.25-0.37891 0.25781-0.35937 0.27344-0.33203 0.28125-0.30078 0.29688-0.27344 0.29297-0.23438 0.30078-0.19922 0.30469-0.16016 0.30078-0.125 0.35547-0.09766c0.51953-0.14453 0.82031-0.68359 0.67578-1.1992-0.14844-0.51562-0.68359-0.82031-1.1992-0.67578zm-35.5 20.398 0.85547-0.33984 0.87109-0.29688 0.90625-0.24219 0.43359-0.09375 0.44922-0.08203 0.44531-0.05859 0.44531-0.04297 0.43359-0.01953h0.42578l0.42188 0.02344 0.40625 0.04687 0.40234 0.07031 0.38672 0.09375 0.36719 0.125 0.35937 0.14453 0.34375 0.17578 0.33203 0.19922 0.32031 0.23438 0.30469 0.26953 0.29297 0.30078 0.30078 0.37891c0.35938 0.4375 1.0078 0.50391 1.4492 0.14844 0.4375-0.35938 0.50391-1.0078 0.14844-1.4453l-0.36328-0.44141-0.41406-0.43359-0.44141-0.375-0.46094-0.33984-0.48047-0.28906-0.49219-0.24609-0.50781-0.20312-0.51953-0.15625-0.51953-0.125-0.52734-0.08594-0.53516-0.05469-0.53125-0.01562-0.53125 0.0039-0.53125 0.03516-0.52734 0.05859-0.52344 0.07813-0.52344 0.10156-0.52734 0.12109-0.99219 0.27344-0.97266 0.33594-0.90625 0.36719c-0.5 0.19922-0.74219 0.76562-0.53906 1.2656 0.19922 0.49609 0.76563 0.73828 1.2656 0.53516z"/>
</svg>
