<?xml version="1.0" encoding="UTF-8"?>
<svg width="150" height="150" version="1.1" viewBox="-5 -10 76.186 80.003" xmlns="http://www.w3.org/2000/svg">
 <path d="m70.729 17.113-10.48-6.8438-3.2695-12.082c-0.125-0.45312-0.55859-0.76172-1.0156-0.73828l-12.5 0.625-9.7461-7.8516c-0.36719-0.29688-0.89062-0.29688-1.2539 0l-9.7461 7.8516-12.5-0.62109c-0.46875-0.01953-0.89062 0.28516-1.0156 0.73828l-3.2695 12.082-10.48 6.8438c-0.39453 0.25781-0.55469 0.75391-0.38672 1.1953l4.457 11.691-4.457 11.695c-0.16797 0.4375-0.0078 0.9375 0.38672 1.1953l10.48 6.8438 3.2695 12.082c0.125 0.45312 0.54297 0.75781 1.0156 0.73828l12.5-0.625 9.7461 7.8516c0.18359 0.14453 0.40625 0.21875 0.62891 0.21875s0.44531-0.07422 0.62891-0.22266l9.7461-7.8516 12.5 0.625c0.46094 0.02344 0.89062-0.28125 1.0156-0.73828l3.2695-12.082 10.48-6.8438c0.39453-0.25781 0.55469-0.75391 0.38672-1.1953l-4.457-11.691 4.457-11.695c0.16797-0.44141 0.0039-0.9375-0.39062-1.1953zm-6.0703 12.535c-0.08594 0.23047-0.08594 0.48438 0 0.71094l4.3047 11.297-10.125 6.6133c-0.20703 0.13281-0.35547 0.33984-0.41797 0.57812l-3.1602 11.672-12.078-0.60156c-0.24219-0.01562-0.48438 0.06641-0.67578 0.21875l-9.4141 7.582-9.4141-7.5859c-0.17969-0.14453-0.39844-0.22266-0.62891-0.22266h-0.05078l-12.078 0.60156-3.1602-11.672c-0.0625-0.23828-0.21094-0.44141-0.41797-0.57813l-10.125-6.6094 4.3047-11.297c0.08594-0.23047 0.08594-0.48437 0-0.71094l-4.3047-11.297 10.125-6.6094c0.20703-0.13281 0.35547-0.33984 0.41797-0.57812l3.1602-11.672 12.078 0.60156c0.24609 0.01172 0.48438-0.06641 0.67578-0.21875l9.418-7.582 9.4141 7.5859c0.19141 0.15625 0.4375 0.23438 0.67578 0.21875l12.078-0.60156 3.1602 11.672c0.0625 0.23828 0.21094 0.44141 0.41797 0.57812l10.125 6.6094z" fill="#edba6d"/>
</svg>
