<?xml version="1.0" encoding="UTF-8"?>
<svg width="90.625" height="90.625" data-name="Layer 1" version="1.1" viewBox="0 0 88.998 89" xmlns="http://www.w3.org/2000/svg">
 <path fill="#f59d84" d="m88.932 42.077v-0.016a44.244 44.244 0 0 0-1.521-9.33 1.075 1.075 0 0 0-0.057-0.2 43.951 43.951 0 0 0-1.479-4.386 0.929 0.929 0 0 0-0.093-0.236 44.644 44.644 0 0 0-9.83-14.864 0.949 0.949 0 0 0-0.229-0.218 44.383 44.383 0 0 0-57.2-4.422 0.994 0.994 0 0 0-0.315 0.224 44.855 44.855 0 0 0-12 13.239 1.033 1.033 0 0 0-0.1 0.174 44.351 44.351 0 0 0-2.884 39.063 0.968 0.968 0 0 0 0.055 0.138 44.6 44.6 0 0 0 8.262 13.127 1.07 1.07 0 0 0 0.13 0.139 44.825 44.825 0 0 0 6.645 5.942 0.971 0.971 0 0 0 0.2 0.139 44.4 44.4 0 0 0 58.8-6.065 0.978 0.978 0 0 0 0.184-0.2 44.8 44.8 0 0 0 4.459-5.841 0.994 0.994 0 0 0 0.253-0.394 44.222 44.222 0 0 0 6.786-23.59c0-0.811-0.025-1.615-0.068-2.416zm-8.247 24.68h-42.916a6.661 6.661 0 0 0-5.165 2.443l-1.506 1.844a4.661 4.661 0 0 1-3.618 1.713h-14.691a42.6 42.6 0 0 1-7.1-10.96h43.76a4.845 4.845 0 0 0 4.84-4.84 2.843 2.843 0 0 1 2.84-2.84h28.758a42.244 42.244 0 0 1-5.202 12.64zm-4.478 6h-31.509a6.66 6.66 0 0 0-5.164 2.443l-1.512 1.844a4.659 4.659 0 0 1-3.618 1.712h-15.021a42.845 42.845 0 0 1-4.693-4h12.785a6.66 6.66 0 0 0 5.165-2.444l1.511-1.843a4.661 4.661 0 0 1 3.618-1.713h41.6a42.7 42.7 0 0 1-3.162 4.001zm-68.576-49.357h38.042a2.218 2.218 0 0 1 2.025 1.321l0.949 2.157a4.22 4.22 0 0 0 3.865 2.522h31.7c0.322 0.842 0.624 1.693 0.892 2.56h-64.151a4.962 4.962 0 0 0-3.287 1.24l-1.831 1.614a2.963 2.963 0 0 1-1.964 0.743h-10.918a42.2 42.2 0 0 1 4.678-12.157zm6.24 14.16a4.962 4.962 0 0 0 3.287-1.243l1.831-1.617a2.963 2.963 0 0 1 1.964-0.743h64.72a42.287 42.287 0 0 1 1.175 7.12h-84.7q0.143-1.78 0.426-3.52zm-11.69 10.8h38.031a1.28 1.28 0 0 1 0 2.56h-18.952a4.184 4.184 0 0 0-2.974 1.231l-2.083 2.083a2.216 2.216 0 0 1-1.559 0.646h-11.359a42.207 42.207 0 0 1-1.104-6.523zm54.951 3.76a4.846 4.846 0 0 0-4.84 4.84 2.843 2.843 0 0 1-2.84 2.84h-44.595c-0.371-0.958-0.713-1.93-1.015-2.92h10.8a4.231 4.231 0 0 0 2.973-1.231l2.083-2.086a2.2 2.2 0 0 1 1.561-0.646h18.953a3.28 3.28 0 0 0 0-6.56h-38.167c-0.027-0.616-0.047-1.234-0.047-1.857 0-0.477 0.02-0.949 0.036-1.423h84.928c0.016 0.474 0.036 0.946 0.036 1.423a42.5 42.5 0 0 1-0.7 7.617zm15.446-39.483h-6.911a3.5 3.5 0 0 1-2.18-0.764l-2.94-2.352a5.511 5.511 0 0 0-3.43-1.2h-34.882a42.385 42.385 0 0 1 50.343 4.32zm-53.3-2.32h37.839a3.5 3.5 0 0 1 2.18 0.765l2.94 2.352a5.51 5.51 0 0 0 3.43 1.2h9.036a42.667 42.667 0 0 1 8.689 12.766h-30.88a2.221 2.221 0 0 1-2.031-1.324l-0.949-2.157a4.217 4.217 0 0 0-3.859-2.519h-36.819a42.831 42.831 0 0 1 10.425-11.083zm3.072 70.44h12.054a6.652 6.652 0 0 0 5.165-2.444l1.512-1.843a4.663 4.663 0 0 1 3.617-1.713h29.608a42.407 42.407 0 0 1-51.955 6z"/>
</svg>
